<svg width="219" height="146" viewBox="0 0 219 146" fill="none" xmlns="http://www.w3.org/2000/svg">
<path fill-rule="evenodd" clip-rule="evenodd" d="M157 60.9531C156.621 59.3256 156.061 57.768 155.346 56.3013C152.892 52.37 148.548 49.7483 143.587 49.7313C135.896 49.7048 129.639 55.9477 129.613 63.6739C129.61 64.4725 129.678 65.254 129.804 66.0163C129.807 63.7069 131.162 61.7165 133.116 60.7983C134.948 59.7723 137.038 59.1444 139.276 59.0397C147.005 58.6779 153.563 64.679 153.923 72.4431C154.092 76.0947 152.86 79.4858 150.703 82.0909C153.772 79.1691 156.003 75.3699 157 71.0932V87.734H139.864C141.749 87.3573 143.547 86.7399 145.224 85.9149C149.138 83.4502 151.748 79.0865 151.765 74.1032C151.791 66.3765 145.576 60.0917 137.885 60.0653C137.09 60.0625 136.312 60.1308 135.553 60.2569C137.852 60.2602 139.834 61.6212 140.748 63.5841C141.769 65.4248 142.394 67.5243 142.498 69.7719C142.858 77.5361 136.884 84.1227 129.155 84.4851C125.52 84.6553 122.144 83.4171 119.551 81.2504C122.623 84.5065 126.672 86.8236 131.225 87.7335H113.62V68.2441C113.884 70.9131 114.62 73.4428 115.744 75.7472C118.197 79.6791 122.541 82.3002 127.502 82.3178C135.194 82.3437 141.45 76.1013 141.477 68.3752C141.479 67.5766 141.411 66.7951 141.286 66.0328C141.283 68.3422 139.928 70.3326 137.974 71.2507C136.141 72.2768 134.051 72.9047 131.814 73.0093C124.084 73.3712 117.527 67.3701 117.167 59.6065C116.997 55.9549 118.229 52.5638 120.386 49.9587C116.654 53.5123 114.161 58.3634 113.619 63.7928V44H133.335C130.678 44.266 128.159 45.0046 125.865 46.1331C121.951 48.5983 119.341 52.962 119.324 57.9454C119.298 65.672 125.512 71.9568 133.204 71.9827C133.999 71.9855 134.777 71.9172 135.536 71.791C133.237 71.7877 131.255 70.4268 130.341 68.4639C129.32 66.6232 128.695 64.5237 128.591 62.276C128.231 54.5119 134.205 47.9242 141.934 47.5629C145.569 47.3927 148.944 48.6303 151.538 50.797C148.001 47.0485 143.172 44.5436 137.766 44H156.999L157 60.9531Z" fill="#9F9F9F"/>
<path fill-rule="evenodd" clip-rule="evenodd" d="M101.562 44V72.1595H84.1275L100.594 44H101.562Z" fill="#9F9F9F"/>
<path fill-rule="evenodd" clip-rule="evenodd" d="M101.562 84.2719V87.734H75.0198L77.0436 84.2719H101.562Z" fill="#9F9F9F"/>
<path fill-rule="evenodd" clip-rule="evenodd" d="M85.7236 44L61 87.5738V44H85.7236Z" fill="#9F9F9F"/>
<path fill-rule="evenodd" clip-rule="evenodd" d="M135.545 70.885C138.218 70.885 140.385 68.7084 140.385 66.024C140.385 63.3396 138.218 61.1629 135.545 61.1629C132.873 61.1629 130.706 63.339 130.706 66.024C130.706 68.709 132.872 70.885 135.545 70.885Z" fill="#9F9F9F"/>
<path d="M155.45 98.4244V98.6954C155.45 99.7066 155.431 100.619 154.17 101.321C152.93 102 151.421 102 149.837 102L149.755 102C145.971 102 143.208 101.876 143.208 98.4988V96.1074C143.208 93.049 145.675 92.6061 149.755 92.6061C153.576 92.6061 155.357 92.8644 155.431 95.6386V95.9955H151.61V95.6386C151.481 94.8125 150.608 94.7514 149.347 94.7514C147.233 94.7514 147.028 95.1826 147.028 96.5017V97.9442C147.028 99.3255 147.121 99.8559 149.347 99.8559C150.887 99.8559 151.629 99.7815 151.629 98.6965V98.4255L155.45 98.4244Z" fill="#9F9F9F"/>
<path fill-rule="evenodd" clip-rule="evenodd" d="M67.2003 100.336L66.5144 101.926H62.656L66.8296 92.6788H72.4683L76.6973 101.926H72.9135L72.1898 100.336H67.2003ZM67.998 98.5349H71.4479L69.723 94.5286H69.6857L67.998 98.5349Z" fill="#9F9F9F"/>
<path d="M83.2357 101.926H79.5259V94.8252H75.9648V92.6788H86.9827V94.8252H83.2357V101.926Z" fill="#9F9F9F"/>
<path d="M97.2029 99.781H91.397V92.6788H87.6872V101.926H97.2029V99.781Z" fill="#9F9F9F"/>
<path fill-rule="evenodd" clip-rule="evenodd" d="M101.883 100.336L101.197 101.926H97.3383L101.512 92.6788H107.151L111.38 101.926H107.596L106.873 100.336H101.883ZM106.131 98.5349H102.681L104.369 94.5286H104.406L106.131 98.5349Z" fill="#9F9F9F"/>
<path d="M111.76 101.926H115.469L115.247 94.8252H115.395L119.328 101.926H125.653V92.6788H121.943L122.166 99.781H122.017L118.029 92.6788H111.76V101.926Z" fill="#9F9F9F"/>
<path d="M133.544 101.926H129.834V94.8252H126.273V92.6788H137.291V94.8252H133.544V101.926Z" fill="#9F9F9F"/>
<path d="M138.07 101.926H141.78V92.6788H138.07V101.926Z" fill="#9F9F9F"/>
<path fill-rule="evenodd" clip-rule="evenodd" d="M152.988 46.305C152.988 45.4749 153.653 44.8063 154.479 44.8063C155.301 44.8063 155.971 45.4749 155.971 46.305C155.971 47.1344 155.301 47.803 154.479 47.803C153.653 47.803 152.988 47.1344 152.988 46.305Z" fill="#9F9F9F"/>
<path fill-rule="evenodd" clip-rule="evenodd" d="M155.63 46.305C155.63 45.6639 155.109 45.1489 154.478 45.1489C153.836 45.1489 153.328 45.6639 153.328 46.305C153.328 46.946 153.836 47.461 154.478 47.461C155.109 47.461 155.63 46.9455 155.63 46.305Z" fill="#9F9F9F"/>
<path fill-rule="evenodd" clip-rule="evenodd" d="M155.223 47.1267H154.839L154.479 46.4625H154.177V47.1267H153.837V45.5063H154.643C155.016 45.5063 155.27 45.5735 155.27 46.0015C155.27 46.3005 155.118 46.4228 154.831 46.4421L155.223 47.1267Z" fill="#9F9F9F"/>
<path fill-rule="evenodd" clip-rule="evenodd" d="M154.651 46.2025C154.831 46.2064 154.929 46.1634 154.929 45.9591C154.929 45.7663 154.726 45.7663 154.569 45.7663H154.177V46.2025H154.651Z" fill="#9F9F9F"/>
</svg>
