<svg width="220" height="146" viewBox="0 0 220 146" fill="none" xmlns="http://www.w3.org/2000/svg">
<path d="M108.187 65.0165C103.216 65.0165 99.1832 68.8392 99.1832 73.5581C99.1832 78.2734 103.216 82.0964 108.187 82.0964C113.161 82.0964 117.19 78.2734 117.19 73.5581C117.19 68.8392 113.161 65.0165 108.187 65.0165ZM108.187 63.634C114.639 63.634 119.869 68.0746 119.869 73.5581C119.869 79.0377 114.639 83.4826 108.187 83.4826C101.738 83.4826 96.5082 79.0377 96.5082 73.5581C96.5082 68.0746 101.738 63.634 108.187 63.634ZM108.187 62.7651C99.4946 62.7651 92.4477 67.5998 92.4477 73.5581C92.4477 79.5165 99.4946 84.3436 108.187 84.3436C116.878 84.3436 123.929 79.5165 123.929 73.5581C123.929 67.5998 116.878 62.7651 108.187 62.7651ZM124.896 73.5581C124.896 80.822 117.417 86.7111 108.187 86.7111C98.9596 86.7111 91.4814 80.822 91.4814 73.5581C91.4814 66.2905 98.9596 60.4014 108.187 60.4014C117.417 60.4014 124.896 66.2905 124.896 73.5581ZM108.187 59.4786C96.5441 59.4786 87.1015 65.7808 87.1015 73.5581C87.1015 81.3318 96.5441 87.6381 108.187 87.6381C119.833 87.6381 129.276 81.3318 129.276 73.5581C129.276 65.7808 119.833 59.4786 108.187 59.4786ZM108.187 57.0922C96.049 57.0922 86.2072 64.4638 86.2072 73.5581C86.2072 82.6485 96.049 90.0244 108.187 90.0244C120.328 90.0244 130.166 82.6485 130.166 73.5581C130.166 64.4638 120.328 57.0922 108.187 57.0922ZM134.198 103.949L109.48 92.2988L109.049 92.5149V104.537C109.049 104.537 109.049 105 108.618 105H107.412C107.041 105 107.041 104.537 107.041 104.537V91.2912C107.041 90.9396 106.785 90.928 106.785 90.928C93.1903 90.5301 82.2345 82.9033 82.2345 73.5581C82.2345 63.9544 93.8531 56.1694 108.187 56.1694C122.524 56.1694 134.143 63.9544 134.143 73.5581C134.143 83.1582 123.327 89.6073 111.66 90.8085L111.357 91.1562L135.201 102.347C135.201 102.347 135.632 102.65 135.432 103.08C135.233 103.517 135.201 103.517 134.973 103.869C134.741 104.224 134.198 103.949 134.198 103.949Z" fill="#9F9F9F"/>
<path d="M91.3856 47.8124V48.2951H100.457L100.45 44.5225H100.083C99.8276 47.8589 97.1246 47.8278 96.7493 47.8237H95.3319V37.6564H97.1006V37.1386H91.3833V37.6564H93.0761L93.0793 47.8237" fill="#9F9F9F"/>
<path d="M80.3141 44.0244H79.831C79.8501 44.5382 79.1562 47.9014 76.4292 47.9245C74.6645 47.9554 73.8061 46.7007 73.866 43.0281C73.8788 42.3988 73.7184 37.5523 76.7567 37.5177C79.2241 37.4868 79.823 41.0974 79.819 41.0859H80.33C80.3492 40.8419 80.33 37.6836 80.33 37.3129H80.1304L79.3319 37.6372C78.8687 37.6836 77.8666 37.0699 76.6569 37.0467C74.7963 37.0065 71.3985 39.4792 71.5023 42.9315C71.662 48.2915 76.2735 48.3725 76.3294 48.3725C77.3476 48.3725 78.0303 48.0172 78.8568 47.7469C79.304 47.5986 79.9587 47.7161 80.1224 48.2413H80.2502L80.3141 44.0165" fill="#9F9F9F"/>
<path d="M139.932 43.7962H142.759L141.186 40.3558L139.932 43.7962ZM139.525 48.299H132.434V47.8167H134.007V37.6176H132.498V37.1311H137.86V37.6176H136.378V47.8167H137.896L141.761 37.1353H142.092L147.119 47.8167H148.5V48.299H143.517V47.8167H144.575L143.006 44.3446H139.744L138.534 47.8167H139.525" fill="#9F9F9F"/>
<path d="M86.5186 37.4982C85.4606 37.4982 84.4186 37.7577 84.2668 39.4135C84.1033 41.2208 84.0394 44.5767 84.1193 45.2912C84.2349 46.3762 83.8835 47.8782 86.399 47.8782C88.9543 47.8319 88.7346 46.3763 88.8345 45.16C88.9223 43.7621 88.9463 41.1744 88.7189 39.3826C88.623 37.5213 87.4569 37.5291 86.5186 37.4982ZM91.5736 42.6846C91.5736 46.3878 88.5512 48.3689 86.3672 48.3689C84.1833 48.3689 81.4323 46.4845 81.4323 42.8777C81.4323 39.4869 84.1194 37 86.5349 37C88.7348 37 91.4379 38.9657 91.5736 42.6846Z" fill="#9F9F9F"/>
<path d="M109.548 37.5833H108.917V45.0788L108.865 45.9628C108.673 46.8896 108.103 48.3688 105.543 48.5309C103.128 48.6823 101.499 47.0904 101.491 45.6076V37.6143H100.205V37.1274H104.996V37.6143H103.711L103.717 46.8588C103.72 47.0565 104.16 47.952 105.55 48.0098C108.089 47.9356 108.4 46.1404 108.4 45.4262V37.5833H107.654L107.644 37.1316H109.545" fill="#9F9F9F"/>
<path d="M110.327 37.1271H113.485L116.12 44.2987L118.476 37.1271H121.925V37.6177H120.787L120.781 47.8164H121.931V48.2991H117.343V47.8164H118.509V38.5869L115.335 48.2837H115.223L111.594 38.5639V47.8164H112.48V48.2991H110.324V47.8164H111.131V37.5793H110.328" fill="#9F9F9F"/>
<path d="M128.038 47.8125C128.269 47.8125 129.95 47.8834 129.882 45.2059C129.87 44.7694 129.866 42.6842 128.237 42.5529H126.209V47.805H128.038V47.8125ZM128.221 41.954C129.164 41.954 129.555 40.9738 129.539 39.7841C129.52 37.4325 128.369 37.6179 127.798 37.6142H126.209V41.9582H128.221M122.915 37.1311H127.918C129.559 37.162 131.208 38.0889 131.487 39.3478C131.707 40.3599 131.332 41.603 129.387 42.1671L129.343 42.3217C129.375 42.3217 132.046 42.92 132.058 44.8431C132.071 46.6621 130.477 48.2994 128.257 48.2994H122.919V47.8167H123.857L123.854 37.618H122.916" fill="#9F9F9F"/>
</svg>
