<svg width="220" height="146" viewBox="0 0 220 146" fill="none" xmlns="http://www.w3.org/2000/svg">
<path fill-rule="evenodd" clip-rule="evenodd" d="M198.177 72.9091C198.177 72.1798 198.953 71.791 199.802 71.791C201.233 71.791 202.3 72.6175 202.493 73.8811H205.306C205.04 71.2807 202.833 69.4582 199.85 69.4582C197.207 69.4582 195.171 70.8433 195.171 73.1761C195.171 75.7765 197.644 76.457 199.705 76.9918C201.184 77.3804 202.445 77.6965 202.445 78.5713C202.445 79.2761 201.645 79.7621 200.529 79.7621C199.026 79.7621 197.886 78.9116 197.716 77.6479H194.904C195.171 80.2481 197.45 82.0952 200.529 82.0952C203.318 82.0952 205.5 80.6126 205.5 78.2795C205.5 75.7522 203.027 75.0718 200.966 74.5372C199.463 74.1482 198.177 73.8082 198.177 72.9091ZM182.857 69.7252H179.777V81.8522H182.857V75.4363C182.857 73.7837 184.311 72.0583 186.785 72.4471V69.5068C184.918 69.2878 183.584 70.3327 182.857 71.9125V69.7252ZM172.543 75.6307L170.191 70.6732L167.911 75.6307H172.543ZM170.312 64.1115L179.041 81.8522H175.501L173.779 78.2309H166.699L165.026 81.8522H161.583L170.312 64.1115ZM153.461 74.4886H156.589C156.007 71.548 153.485 69.4822 150.478 69.4822C146.987 69.4822 144.15 72.1312 144.15 75.8008C144.15 79.4462 146.987 82.0952 150.478 82.0952C153.485 82.0952 156.007 80.1266 156.589 77.186H153.461C152.976 78.4984 151.837 79.3247 150.478 79.3247C148.66 79.3247 147.205 77.8909 147.205 75.8494C147.205 73.7596 148.66 72.3499 150.478 72.3499C151.837 72.3499 152.976 73.1761 153.461 74.4886ZM139.706 81.8522H142.785V69.7255H139.706V81.8522ZM139.269 66.2259C139.269 67.3195 140.166 68.2186 141.233 68.2186C142.324 68.2186 143.222 67.3195 143.222 66.2259C143.222 65.1324 142.324 64.2331 141.233 64.2331C140.166 64.2331 139.269 65.1324 139.269 66.2259ZM129.869 71.2319V69.7252H126.789V81.8522H129.869V74.5127C129.869 73.1035 130.96 71.9854 132.39 71.9854C133.869 71.9854 134.912 73.0546 134.912 74.6342V81.8522H137.992V74.3912C137.992 71.548 136.367 69.4582 133.482 69.4582C131.93 69.4582 130.596 70.1383 129.869 71.2319ZM119.01 72.3256C117.143 72.3256 115.664 73.7351 115.664 75.8251C115.664 77.8664 117.143 79.3004 119.01 79.3004C120.877 79.3004 122.356 77.8664 122.356 75.8251C122.356 73.7351 120.877 72.3256 119.01 72.3256ZM119.01 82.0952C115.47 82.0952 112.609 79.4462 112.609 75.8008C112.609 72.1312 115.47 69.4822 119.01 69.4822C122.55 69.4822 125.412 72.1312 125.412 75.8008C125.412 79.4462 122.55 82.0952 119.01 82.0952ZM108.574 69.7252H105.494V81.8522H108.574V75.4363C108.574 73.7837 110.029 72.0583 112.502 72.4471V69.5068C110.635 69.2878 109.302 70.3327 108.574 71.9125V69.7252ZM190.869 66.1773L187.838 67.1494V78.7172C187.838 80.5883 189.148 81.8522 191.378 81.8522H194.385V79.106H192.251C191.306 79.106 190.869 78.6686 190.869 77.8664V72.3499H194.385V69.7252H190.869V66.1773ZM100.804 66.1773L97.773 67.1494V78.7172C97.773 80.5883 99.0823 81.8522 101.313 81.8522H104.32V79.106H102.186C101.241 79.106 100.804 78.6686 100.804 77.8664V72.3499H104.32V69.7252H100.804V66.1773ZM93.6573 74.4886H96.7851C96.2032 71.548 93.6815 69.4822 90.6747 69.4822C87.1831 69.4822 84.346 72.1312 84.346 75.8008C84.346 79.4462 87.1831 82.0952 90.6747 82.0952C93.6815 82.0952 96.2032 80.1266 96.7851 77.186H93.6573C93.1724 78.4984 92.0325 79.3247 90.6747 79.3247C88.8562 79.3247 87.4013 77.8909 87.4013 75.8494C87.4013 73.7596 88.8562 72.3499 90.6747 72.3499C92.0325 72.3499 93.1724 73.1761 93.6573 74.4886ZM79.9631 74.5858C79.6964 73.1521 78.4353 72.1555 77.0045 72.1555C75.574 72.1555 74.3859 73.1035 73.9737 74.5858H79.9631ZM83.2852 76.7972H73.9496C74.3616 78.3283 75.7194 79.349 77.3682 79.349C78.3141 79.349 79.1867 78.9845 79.6964 78.2309H83.1152C82.1941 80.564 80.0114 82.0952 77.32 82.0952C73.6824 82.0952 70.7246 79.4219 70.7246 75.7765C70.7246 72.1069 73.5372 69.4582 77.0045 69.4582C80.0114 69.4582 83.3092 71.6695 83.3092 76.3355C83.3092 76.4813 83.2852 76.6273 83.2852 76.7972ZM66.2813 81.8522H69.3609V63.8685L66.2813 64.8408V81.8522ZM52.5627 64.8408H64.8813V67.8298H55.9577V71.8153H63.1835V74.7557H55.9577V78.9116H64.8813V81.8522H52.5627V64.8408Z" fill="#9F9F9F"/>
<path fill-rule="evenodd" clip-rule="evenodd" d="M29.4549 87C21.7601 87 15.5 80.7196 15.5 73C15.5 65.2803 21.7601 59 29.4549 59C37.1496 59 43.4099 65.2804 43.4099 73C43.4099 80.7196 37.1497 87 29.4549 87ZM31.8169 67.5849H23.9303L22.7337 69.5141H30.6112L31.8169 67.5849ZM33.4286 67.6033L28.6074 75.3051H23.2595L24.4933 73.3742H27.6986L28.923 71.4443H21.5129L20.2887 73.3742H22.0441L19.6086 77.2293H29.773L33.5273 71.2895L34.8962 73.3742H33.6619L32.493 75.3051H36.1481L37.4173 77.2293H39.7489L33.4286 67.6033Z" fill="#9F9F9F"/>
</svg>
