<svg width="220" height="146" viewBox="0 0 220 146" fill="none" xmlns="http://www.w3.org/2000/svg">
<path d="M159.342 64.2297C158.988 63.144 158.042 62.482 157.267 62.3099C155.547 61.926 153.432 62.7998 150.963 64.9049C148.179 67.288 145.447 68.5723 144.016 68.1486C142.965 67.8441 142.216 67.2748 141.809 66.4672C141.244 65.3683 141.284 63.8192 141.941 61.873C143.622 56.8684 146.944 53.81 149.492 52.9892C150.832 52.5523 151.62 52.8568 152.053 53.1745C152.526 53.532 152.697 54.0351 152.697 54.3793V54.3926C152.684 55.4253 152.08 55.7033 151.239 55.9681L151.147 55.9946C150.188 56.2991 148.245 56.9081 148.245 58.6822C148.245 58.7617 148.245 58.8411 148.258 58.9338C148.323 59.5958 148.678 60.0989 149.269 60.3902C150.293 60.8668 151.778 60.5623 152.605 59.993C153.984 59.0397 155.494 57.0802 155.218 54.7103C154.956 52.4728 153.551 50.9238 151.436 50.5928C149.913 50.3412 147.378 50.5531 143.95 52.9097C140.68 55.1605 138.946 57.7819 137.79 59.8209C135.991 63.0116 135.834 65.686 135.834 66.5201V66.6525C135.505 66.9967 134.257 68.2678 133.351 69.0224C133.325 69.0357 131.828 70.3331 130.83 69.83C129.635 69.221 130.186 67.6985 130.475 67.0762C130.83 66.3083 135.899 53.7174 136.136 53.1348C136.267 52.8965 136.372 52.5787 136.175 52.3802C135.925 52.1418 135.545 52.3802 135.361 52.4993C134.586 52.9892 133.89 53.201 133.075 53.1745C132.393 53.1481 131.736 52.9097 131.591 52.8568C131.499 52.7906 131.289 52.6714 131.027 52.7376C130.777 52.7906 130.58 52.9892 130.436 53.3069L130.147 53.9689C129.766 54.8825 129.188 56.2594 128.453 57.5966C127.336 59.6487 126.259 60.8138 125.353 61.7009C124.552 62.4688 123.514 63.2367 122.858 63.7001C123.068 62.866 123.37 61.4493 123.37 60.0592C123.37 59.3707 123.304 58.6822 123.107 58.0732C122.674 56.7492 121.82 55.7033 120.678 55.134C119.233 54.4191 117.447 54.4455 115.332 55.2002C113.126 55.9946 110.788 58.1262 109.448 59.4899C110.46 57.1994 114.479 48.3685 114.479 48.3685C114.479 48.3685 92.0597 65.0373 91.6394 65.3418C91.0747 64.6798 89.1966 62.7071 86.2022 62.3231C83.2603 61.9392 80.4235 62.9189 78.6242 64.9446C76.5097 67.3013 75.9975 70.1875 77.1664 73.0738C78.3615 76.0394 80.8963 76.6485 81.9207 76.7809C84.0877 77.0457 85.887 76.1983 86.7012 74.5036C86.9902 73.9079 87.0953 73.3518 87.0953 72.8619C87.0953 72.0675 86.8194 71.4585 86.6356 71.154C86.9902 70.8892 89.2097 69.2343 89.5906 68.943C89.9189 69.4593 90.6544 70.8495 90.6544 72.703C90.6544 73.2724 90.5888 73.8814 90.418 74.5036C89.6825 77.231 87.6994 78.6874 86.1628 79.4156C83.9564 80.4747 77.9018 81.15 74.3164 76.238C70.2844 70.7171 72.4252 64.6004 74.1325 62.151C75.9712 59.5031 78.3352 57.6098 81.1589 56.5374C82.446 56.0475 84.2059 55.7695 85.7819 55.8092C87.266 55.8489 88.5531 56.1005 90.0765 56.6566C92.4143 57.5171 94.0691 59.0397 94.0823 59.0529L94.253 59.2118L98.6264 55.9549L98.088 55.7828C98.0486 55.7695 94.2136 54.5779 92.9002 51.6387C91.0484 47.5344 93.2023 44.8071 94.2267 43.8273C96.0917 42.0135 99.0992 41.6031 101.214 42.9006C102.724 43.8273 103 45.2175 103 46.0913V46.1708C102.58 45.6941 101.844 45.1116 100.728 45.0851C99.073 45.0321 97.1555 46.184 96.8534 48.3818C96.7221 49.335 96.9585 50.2221 97.5363 50.9768C98.2456 51.9035 99.4276 52.539 100.702 52.6979C103.223 53.0024 105.653 51.2415 106.467 48.5142C107.268 45.8398 106.52 42.0135 103.538 39.8687C100.675 37.8033 96.0129 36.8235 91.5212 40.2923C90.0503 41.4177 88.4743 43.7082 88.4743 46.6739C88.4743 46.9916 88.4874 47.3226 88.5268 47.6668C88.7895 49.8911 89.5643 51.5593 90.1159 52.4993C88.6844 51.8638 85.7688 50.8046 82.5248 50.8708C79.8193 50.937 73.0162 51.7976 68.1568 58.4174C64.0066 64.0708 64.6108 70.9289 66.5677 75.4569C68.7609 80.5674 74.0275 84.0362 79.9901 84.301C84.9939 84.5261 89.3673 82.7917 92.0072 79.5347C93.859 77.2575 94.3449 74.742 94.3449 72.7295C94.3449 71.3791 94.1217 70.2537 93.9509 69.5652C93.5832 68.1354 93.0316 67.1291 92.7689 66.6922C93.1629 66.401 103.972 58.4042 105.403 57.345C104.668 59.1059 94.3449 83.97 94.253 84.2083C92.6901 84.6982 75.9318 90.0073 63.2318 97.2229C63.2318 97.2229 62.3256 99.7384 61.5375 102.969C60.7495 106.186 60.5 108 60.5 108C74.2376 97.8319 88.5662 91.7549 91.5081 90.6428C91.0878 91.6358 88.5531 97.4347 88.5531 97.4347C88.5531 97.4347 88.9865 96.9978 89.6431 96.5212C90.2998 96.0446 92.0334 94.7603 94.2005 93.8468C96.5119 92.8538 98.4294 92.5096 98.4557 92.5096L99.1124 92.3904L98.5739 91.9932C98.5608 91.98 97.6545 91.318 97.405 90.1529C97.3393 89.8617 97.3131 89.5969 97.3131 89.3585C97.3131 88.8157 97.4444 88.4318 97.5101 88.2597C98.1274 87.9949 102.199 86.3002 112.495 83.7052C119.535 81.9311 127.809 80.4615 133.837 79.4023C137.698 78.7139 140.745 78.171 142.427 77.7474L142.755 77.6679C147.049 76.5955 152.92 75.1259 157.136 70.1346C158.975 67.95 159.5 66.348 159.5 65.2094C159.5 64.8387 159.434 64.5077 159.342 64.2297ZM85.493 69.9624C85.2303 69.7638 84.705 69.4726 83.8382 69.4196C82.9582 69.3667 82.1965 69.6844 81.7499 69.9227V69.8698C81.7499 69.3402 81.8681 68.4664 82.4985 67.6587C83.3522 66.5731 84.6787 66.0832 86.0314 66.348C87.2135 66.5731 88.0803 67.2748 88.448 67.6323C88.054 67.95 85.795 69.7241 85.493 69.9624ZM155.284 69.1283C154.864 69.7638 154.233 70.4391 153.511 71.0481C152.329 72.0146 150.766 72.8884 148.862 73.6431C146.091 74.7287 143.004 75.2318 137.764 76.0527L131.999 76.9133C128.741 77.3899 125.366 77.8798 120.848 78.6344C112.64 79.9981 105.758 81.3353 99.8084 82.7122C100.596 80.7528 103.486 73.4974 104.418 71.5247L105.009 70.2405C106.126 67.7779 107.833 64.0443 109.304 62.4158C111.484 60.0327 114.689 57.8746 116.632 58.338C118.274 58.722 118.799 60.1386 118.287 62.7733C117.88 64.8519 116.619 67.6058 115.293 68.4399C114.597 68.8768 113.809 68.9959 113.086 68.7973C112.508 68.6385 112.023 68.281 111.799 67.8308C111.34 66.9173 112.023 65.6066 112.023 65.5933L112.272 65.13L111.76 65.1697C111.655 65.1829 109.212 65.3947 107.715 67.3145C106.086 69.3931 105.876 72.1205 107.203 73.9476C108.03 75.0994 109.396 75.7349 110.932 75.7084C112.522 75.682 114.085 74.9935 114.886 74.5963C119.377 72.3191 121.269 68.1354 121.557 67.4072C121.925 67.2218 123.278 66.5201 124.88 65.3021C125.616 64.7592 126.259 64.137 126.771 63.6074C126.023 65.5536 124.788 68.8503 124.539 70.1213C124.447 70.545 124.381 71.0481 124.381 71.5644C124.381 72.2397 124.499 72.9414 124.88 73.4974C125.235 74.0138 125.76 74.3448 126.443 74.4639C128.663 74.8611 130.62 73.6166 132.432 72.3191C133.955 71.2202 135.584 69.3269 136.254 68.4928C136.582 69.3402 137.475 71.0084 139.511 71.7233C141.533 72.4383 143.438 72.478 146.629 70.5317C148.717 69.2607 150.136 67.8838 151.16 66.8644C151.659 66.3877 152.093 65.9773 152.46 65.686C153.721 64.7328 154.824 64.6798 155.56 65.5404C155.849 65.8846 156.059 66.3745 156.059 66.9835C156.033 67.5793 155.823 68.3207 155.284 69.1283ZM113.835 70.6509C113.231 71.3526 111.996 72.5706 110.617 72.5706C109.908 72.5706 109.265 72.3191 108.857 71.8822C108.516 71.5115 108.345 71.0216 108.345 70.4126C108.345 70.3199 108.345 70.2405 108.358 70.1478C108.463 68.8106 109.278 68.1354 109.737 67.8441C109.842 68.4002 110.118 69.3402 110.998 69.9095C112.036 70.5715 113.152 70.6641 113.835 70.6509ZM136.109 44.7276C137.462 45.1513 139.025 44.0392 139.603 42.2386C139.931 41.2059 139.879 40.1467 139.458 39.3258C139.169 38.7565 138.723 38.3726 138.184 38.2005C136.832 37.7768 135.269 38.8889 134.691 40.6895C134.546 41.1397 134.481 41.6031 134.481 42.04C134.481 42.6093 134.599 43.1521 134.835 43.6155C135.137 44.1716 135.571 44.5688 136.109 44.7276ZM158.973 52.0876C158.973 53.0492 158.184 53.8345 157.213 53.8345C156.236 53.8345 155.447 53.0492 155.447 52.0876C155.447 51.1244 156.236 50.3464 157.213 50.3464C158.184 50.3464 158.973 51.1291 158.973 52.0876ZM155.712 52.0876C155.712 52.9437 156.387 53.6354 157.213 53.6354C158.038 53.6354 158.708 52.9217 158.708 52.0417C158.708 51.2431 158.038 50.5875 157.213 50.5875C156.382 50.5875 155.712 51.2574 155.712 52.0876ZM156.397 51.0979H157.383C157.855 51.0979 158.024 51.2532 158.024 51.6884C158.024 52.0215 157.792 52.2061 157.569 52.2061C157.763 52.2061 157.996 52.4442 157.996 52.6612V53.0456H157.654V52.7213C157.654 52.4966 157.418 52.3503 157.168 52.3503H156.739V53.0456H156.397V51.0979ZM157.153 52.0623C157.511 52.0623 157.68 51.9955 157.68 51.7437C157.68 51.4366 157.633 51.3862 157.367 51.3862H156.739V52.0623H157.153Z" fill="#9F9F9F"/>
</svg>
