<svg width="219" height="146" viewBox="0 0 219 146" fill="none" xmlns="http://www.w3.org/2000/svg">
<path d="M37.4385 72.999C37.4385 84.0008 37.4657 92.998 37.502 92.998C37.5564 92.998 44.9483 91.6285 45.8553 91.4471L46.3269 91.3564V84.0098V76.6723H49.1386H51.9502V75.33C51.9502 74.5953 51.9775 72.6816 52.0137 71.0671L52.0681 68.1467H49.2021H46.3269V64.9269V61.7071H49.6374C51.4605 61.7071 52.9479 61.6889 52.9479 61.6617C52.9479 61.5619 53.6735 53.8163 53.7189 53.4263L53.7733 53H45.6013H37.4385V72.999Z" fill="#9F9F9F"/>
<path d="M173.105 54.1701L165.867 54.7687V72.8358V90.903L166.166 90.9483C166.43 90.9937 180.442 92.0095 180.724 92.0004C180.805 92.0004 180.832 91.039 180.832 87.5108V83.0213H177.749H174.665V79.7561V76.491H177.295H179.925V72.5909V68.6909H177.205H174.484V66.106V63.5211L174.692 63.4848C174.801 63.4576 175.726 63.4213 176.751 63.385C177.776 63.3578 179.109 63.3125 179.726 63.2762L180.832 63.2218V58.3875V53.5442L180.588 53.5533C180.442 53.5624 177.078 53.8345 173.105 54.1701Z" fill="#9F9F9F"/>
<path d="M126.642 55.4215C126.732 56.3285 127.766 69.9968 127.748 70.0149C127.739 70.0331 126.406 66.7588 124.782 62.7409C123.168 58.723 121.807 55.3943 121.771 55.3308C121.717 55.2311 119.213 55.6936 115.105 56.5643L114.715 56.646V72.237V87.8281H118.751H122.787L122.742 87.1751C122.651 85.9597 122.315 75.9103 122.352 75.5113C122.379 75.1575 122.651 75.7743 125.227 81.9962C126.787 85.7783 128.111 88.9074 128.147 88.9618C128.202 89.0163 129.462 88.9346 131.603 88.7532C133.462 88.59 134.986 88.4449 134.986 88.4358C134.995 88.4267 134.95 81.8874 134.886 73.9059C134.823 65.9244 134.768 58.3874 134.768 57.1448L134.759 54.9045H130.678H126.587L126.642 55.4215Z" fill="#9F9F9F"/>
<path d="M62.788 55.4579C57.3643 55.8207 54.3803 59.5303 53.437 67.0583C53.2465 68.6183 53.1649 73.9151 53.301 75.7653C53.7544 81.7696 55.378 85.6696 58.2622 87.6559C59.8131 88.7171 62.1441 89.2885 64.4478 89.1524C67.069 89.0073 68.8558 88.2636 70.4611 86.6582C71.7762 85.3431 72.4928 84.1096 73.1821 82.0054C74.1435 79.0667 74.5788 74.6769 74.3612 70.1057C74.1163 64.9903 73.3453 61.8068 71.7581 59.367C70.2434 57.0451 67.849 55.6575 65.0555 55.4851C64.6111 55.4579 64.1394 55.4307 64.0125 55.4126C63.8855 55.4035 63.3413 55.4216 62.788 55.4579ZM64.0669 62.5868C64.729 63.3033 65.0101 66.1603 65.0101 72.2734C65.0101 79.8014 64.5385 82.9305 63.5045 82.2593C63.0601 81.96 62.7245 80.4998 62.5613 78.0781C62.4434 76.3095 62.4434 68.2101 62.5613 66.5141C62.7336 64.1196 63.042 62.7954 63.5045 62.478C63.7585 62.2966 63.8038 62.3057 64.0669 62.5868Z" fill="#9F9F9F"/>
<path d="M75.5322 71.9468V88.463H79.6953H83.8493L83.9037 87.3111C83.94 86.6671 84.0125 84.5811 84.067 82.6583C84.1214 80.7355 84.1939 79.0485 84.2302 78.9124C84.2756 78.722 84.6656 79.9464 85.8628 84.0822C86.7335 87.0662 87.4682 89.5423 87.5044 89.5786C87.577 89.6602 96.0845 88.989 96.1752 88.8983C96.2024 88.862 95.2592 85.8962 94.0801 82.2864L91.9396 75.738L92.3931 75.3389C93.8987 74.0238 95.1412 71.4842 95.495 68.9719C95.6492 67.8744 95.5494 65.1535 95.3136 64.1467C94.4066 60.2013 92.0031 57.1357 88.9375 55.9929C87.6042 55.5031 87.713 55.5122 81.4095 55.4759L75.5322 55.4396V71.9468ZM84.8832 63.2579C85.5272 63.5753 86.0533 64.3916 86.3344 65.5162C86.5249 66.269 86.4977 68.6544 86.2891 69.4163C85.8991 70.8493 85.2098 71.6837 84.1758 72.0012L83.9672 72.0556V67.5207V62.9767L84.2665 63.0402C84.4207 63.0674 84.7018 63.1672 84.8832 63.2579Z" fill="#9F9F9F"/>
<path d="M95.7588 59.7571V63.9746H98.0716H100.384V76.1282V88.2818H104.738H109.091V76.8538V65.4258H111.45H113.808V61.2083V56.9908L113.608 56.9545C113.418 56.9092 96.1216 55.5305 95.8767 55.5396C95.786 55.5396 95.7588 56.4466 95.7588 59.7571Z" fill="#9F9F9F"/>
<path d="M136.662 72.9082V89.37H141.152H145.641V72.9082V56.4464H141.152H136.662V72.9082Z" fill="#9F9F9F"/>
<path d="M155.891 57.5894C150.975 57.8524 146.885 58.0701 146.803 58.0701C146.649 58.0791 146.64 58.3422 146.64 62.342V66.6048H148.952H151.265V78.5316V90.4585H155.664H160.063V78.0328V65.6071H162.512H164.961V61.3443C164.961 58.9952 164.934 57.0905 164.897 57.0905C164.852 57.0996 160.807 57.3173 155.891 57.5894Z" fill="#9F9F9F"/>
</svg>
