<svg width="220" height="146" viewBox="0 0 220 146" fill="none" xmlns="http://www.w3.org/2000/svg">
<path d="M136.548 59.3333L125.408 86.3333H138.186L143.101 74.3333V64H146.377V86.3333H158.5V59.3333" fill="#9F9F9F"/>
<path d="M89.6945 74.6667C91.3328 74 91.9881 71.6667 91.9881 68C91.9881 64.6667 91.3328 62.6667 90.0222 61.3333C88.7116 59.6667 86.7457 59.3333 85.1075 59.3333H62.5V86H74.6229V63.6667H77.5717V75L82.4863 86.3333H95.2645" fill="#9F9F9F"/>
<path d="M125.736 74.3333H112.63V82.3333H109.681V63.6667H112.63V71.3333H125.736C125.736 66 125.408 63.3333 123.77 61.3333C121.804 59.3333 117.872 59 110.991 59C104.111 59 100.179 59.3333 98.2133 61.3333C96.2474 63.3333 95.9198 66.3333 95.9198 72.3333C95.9198 79 96.2474 82.3333 98.2133 84.3333C100.179 86.6667 104.111 87 110.664 87C116.889 87 120.821 86.6667 123.114 84.6667C125.408 83 125.736 80 125.736 74.3333Z" fill="#9F9F9F"/>
</svg>
