<svg width="220" height="146" viewBox="0 0 220 146" fill="none" xmlns="http://www.w3.org/2000/svg">
<path d="M146.243 88.4653C145.742 87.1407 144.789 86.4319 143.704 85.8448C143.5 85.7285 143.312 85.6354 143.152 85.5638C142.828 85.4009 142.497 85.2434 142.168 85.0769C138.785 83.3318 136.143 81.1301 134.311 78.5204C133.791 77.7857 133.339 77.007 132.963 76.1935C132.806 75.7586 132.814 75.5116 132.926 75.286C133.037 75.1123 133.184 74.9629 133.358 74.8475C133.94 74.4734 134.539 74.0939 134.946 73.838C135.671 73.3815 136.245 73.02 136.614 72.764C138.003 71.8189 138.974 70.8148 139.581 69.6925C140.005 68.9171 140.252 68.0621 140.306 67.1855C140.359 66.309 140.218 65.4315 139.892 64.6127C138.973 62.2571 136.686 60.7948 133.916 60.7948C133.331 60.7942 132.748 60.8542 132.177 60.9737C132.025 61.006 131.872 61.04 131.723 61.0776C131.749 59.4666 131.712 57.7662 131.565 56.0926C131.042 50.2091 128.925 47.1251 126.717 44.6657C125.304 43.1246 123.639 41.8207 121.789 40.8066C118.439 38.9451 114.641 38 110.5 38C106.359 38 102.578 38.9451 99.2249 40.8066C97.3708 41.821 95.7024 43.1275 94.2875 44.6729C92.08 47.1322 89.9626 50.2216 89.4402 56.0998C89.293 57.7734 89.2562 59.4827 89.2801 61.0847C89.1311 61.0471 88.9803 61.0131 88.8276 60.9809C88.2563 60.8614 87.6736 60.8014 87.0892 60.8019C84.317 60.8019 82.0267 62.2643 81.1106 64.6198C80.7831 65.439 80.6407 66.3171 80.6931 67.1946C80.7455 68.0721 80.9914 68.9283 81.4141 69.705C82.023 70.8273 82.9943 71.8315 84.3832 72.7765C84.7511 73.0271 85.3269 73.3887 86.0517 73.8505C86.4435 74.0975 87.0156 74.4591 87.5767 74.8206C87.773 74.9441 87.9398 75.1071 88.066 75.2986C88.1837 75.533 88.1874 75.7854 88.0127 76.2508C87.641 77.0471 87.1971 77.8097 86.6863 78.5294C84.8946 81.08 82.3302 83.2423 79.0558 84.9731C77.3211 85.8681 75.5183 86.4659 74.7567 88.4796C74.1827 89.9992 74.558 91.7283 76.0168 93.1853C76.5522 93.7291 77.1731 94.1865 77.8564 94.5403C79.278 95.3005 80.7896 95.8889 82.3578 96.2926C82.6814 96.3739 82.9886 96.5076 83.2666 96.6882C83.7982 97.1411 83.7228 97.823 84.431 98.8218C84.7865 99.338 85.2383 99.7848 85.7629 100.139C87.2492 101.138 88.9196 101.201 90.6892 101.267C92.2878 101.326 94.0998 101.394 96.1693 102.058C97.0266 102.334 97.9169 102.867 98.9489 103.49C101.427 104.972 104.819 107 110.496 107C116.173 107 119.589 104.961 122.085 103.474C123.11 102.862 123.995 102.334 124.828 102.065C126.898 101.399 128.71 101.333 130.308 101.274C132.078 101.208 133.748 101.145 135.235 100.146C135.856 99.7248 136.374 99.1747 136.75 98.5354C137.26 97.6924 137.247 97.1035 137.725 96.6918C137.986 96.5198 138.275 96.3915 138.579 96.3123C140.169 95.9074 141.701 95.3134 143.141 94.5439C143.867 94.165 144.52 93.6673 145.073 93.0726L145.091 93.0511C146.46 91.6263 146.804 89.9473 146.243 88.4653ZM141.197 91.1036C138.119 92.7575 136.073 92.5803 134.482 93.5773C133.13 94.424 133.93 96.2497 132.948 96.9084C131.741 97.7192 128.174 96.8511 123.566 98.3314C119.766 99.5539 117.341 103.069 110.505 103.069C103.669 103.069 101.302 99.561 97.4387 98.3224C92.8397 96.8421 89.2654 97.7103 88.0568 96.8994C87.0763 96.2407 87.8729 94.415 86.5226 93.5684C84.9295 92.5714 82.8839 92.7486 79.8082 91.1036C77.849 90.0512 78.9601 89.3996 79.6132 89.0918C90.761 83.8401 92.5399 75.7317 92.619 75.1303C92.7146 74.4018 92.8213 73.829 91.9972 73.088C91.2006 72.372 87.6668 70.2438 86.6863 69.5779C85.0638 68.4753 84.3501 67.3745 84.8762 66.0213C85.2441 65.0852 86.1418 64.7326 87.0837 64.7326C87.3814 64.7335 87.678 64.7659 87.9685 64.8293C89.7492 65.2051 91.4784 66.0733 92.4773 66.3077C92.5976 66.3378 92.7211 66.354 92.8452 66.3561C93.3787 66.3561 93.5663 66.0947 93.5296 65.5005C93.4155 63.6049 93.1396 59.9105 93.4468 56.4578C93.868 51.7073 95.4409 49.3535 97.3099 47.2718C98.2076 46.2713 102.426 41.9343 110.492 41.9343C118.559 41.9343 122.788 46.2534 123.686 47.2504C125.557 49.332 127.131 51.6858 127.549 56.4363C127.856 59.8891 127.591 63.5853 127.466 65.479C127.424 66.1037 127.617 66.3346 128.15 66.3346C128.275 66.3326 128.398 66.3164 128.518 66.2863C129.519 66.0518 131.248 65.1837 133.029 64.8078C133.319 64.7444 133.616 64.712 133.914 64.7111C134.861 64.7111 135.753 65.0691 136.121 65.9999C136.647 67.3531 135.937 68.4539 134.313 69.5565C133.332 70.2223 129.799 72.3488 129.002 73.0665C128.176 73.8075 128.285 74.3803 128.38 75.1088C128.459 75.7192 130.236 83.8276 141.386 89.0703C142.045 89.3907 143.156 90.0422 141.197 91.1036Z" fill="#9F9F9F"/>
</svg>
