<svg width="219" height="146" viewBox="0 0 219 146" fill="none" xmlns="http://www.w3.org/2000/svg">
<path fill-rule="evenodd" clip-rule="evenodd" d="M129.865 71.5037C127.227 79.5499 119.816 85.8104 110.421 85.8104C100.459 85.8104 93.7614 79.6343 91.0727 71.6784C93.8701 79.09 101.483 84.404 110.436 84.404C119.458 84.404 127.12 79.0061 129.865 71.5037ZM91.0278 59.2251C93.6772 51.1994 99.9455 45 110.421 45C120.158 45 127.313 51.2842 129.908 59.4007C127.201 51.8364 119.504 46.3782 110.436 46.3782C101.436 46.3782 93.7895 51.7516 91.0278 59.2251Z" fill="#9F9F9F"/>
<path fill-rule="evenodd" clip-rule="evenodd" d="M110.833 57.2429C110.959 57.0599 111.336 57.1819 111.604 57.1882C111.966 57.1953 111.879 57.7169 112.376 57.6129C112.871 57.5098 112.878 58.0754 113.586 58.0554C114.298 58.0335 113.444 58.2983 113.444 58.2983C113.444 58.2983 113.005 58.0906 112.72 58.2291C112.571 58.3021 112.776 58.188 112.526 57.9854C112.136 57.6732 112.187 58.0447 111.532 57.4992C111.072 57.1152 110.629 57.545 110.833 57.2429ZM114.394 71.4861C114.677 71.598 115.028 71.8746 115.191 72.2949C115.575 73.2916 115.004 72.4836 115.004 73.9865C115.004 75.3704 114.606 75.1459 114.606 75.1459C114.606 75.1459 114.52 76.7812 113.659 77.7855C113.109 78.3262 113.536 78.7738 113.536 78.7738C113.536 78.7738 113.349 78.8746 113.08 80.0609C112.994 80.4454 113.495 81.0374 113.931 80.8898C114.256 80.7794 113.138 80.6736 114.35 80.1716C114.818 79.9777 114.436 79.6134 114.436 79.6134C114.436 79.6134 115.221 79.5557 115.664 78.3924C116.445 78.5036 116.155 78.0349 117.764 77.695C118.189 77.6046 118.279 77.4796 118.227 77.0868C118.173 76.6958 118.751 77.1443 120.345 75.5519C121.602 74.2946 121.149 74.0116 122.017 73.5548C122.935 73.0759 123.019 73.5975 123.326 73.2053C124.03 72.3132 123.78 72.3682 124.073 71.8L124.28 71.4845L114.394 71.4861ZM105.556 58.2613C105.295 57.6298 105.312 56.6068 105.87 55.6606C106.222 55.0697 107.153 54.8079 107.967 55.1191C108.88 54.4136 109.097 55.1726 109.906 54.8295C110.967 54.3784 110.372 56.0243 111.401 56.4411C111.826 55.3312 110.432 54.4976 111.306 53.9737C111.93 53.6014 112.4 53.3702 112.656 52.8697C113.02 52.1583 113.163 51.6386 113.442 51.5441C114.091 51.3283 113.951 50.7249 113.951 50.7249C113.951 50.7249 114.639 50.9234 115.176 50.4302C114.767 50.2147 114.17 50.0277 114.327 49.5978C114.51 49.0896 115.899 50.1225 116.308 49.2891C115.484 48.9362 114.641 48.1712 114.138 47.9949C113.791 48.3637 113.576 48.2153 113.13 47.8689C112.376 47.2846 112.312 47.8415 111.841 47.438C111.464 48.1798 112.03 48.1208 112.206 48.3066C112.69 48.8262 111.715 47.8396 111.809 49.1657C111.833 49.5104 111.315 49.5731 110.928 48.8262C110.727 48.4376 109.125 48.5203 108.883 48.1482C109.104 47.7156 110.99 46.1745 113.886 46.544C109.679 44.925 103.994 46.695 103.937 47.3101C103.37 47.6585 103.565 48.0552 103.283 48.1482C102.794 48.3086 102.259 49.7752 102.259 49.7752C102.259 49.7752 102.564 49.9745 101.612 51.018C100.829 51.8771 100.597 53.1797 100.597 53.1797C100.597 53.1797 101.115 54.1077 101.017 55.1776C100.943 55.993 100.908 55.3886 101.27 55.98C101.481 56.326 101.711 57.5342 101.851 57.0631C102.119 56.1629 101.364 55.3315 101.488 54.4369C101.516 54.5483 101.779 54.0829 101.769 54.5043C101.74 55.6088 103.157 57.7371 103.157 57.7371C103.157 57.7371 102.628 58.2623 103.18 58.2623L105.556 58.2613Z" fill="#9F9F9F"/>
<path d="M75.4042 61.2207H72.2088L72.6857 61.7776V65.8878C72.6857 66.8131 72.0614 67.2027 71.129 67.2027C70.1971 67.2027 69.5715 66.8131 69.5715 65.8878V61.7776L70.0492 61.2207H66.8545L67.3313 61.7776V65.9548C67.3313 68.006 68.5034 68.7966 71.129 68.7966C73.7551 68.7966 74.9269 68.006 74.9269 65.9548V61.7776L75.4042 61.2207Z" fill="#9F9F9F"/>
<path d="M86.4935 61.2207H83.7975L84.2772 61.7776V65.5209L80.4114 61.2207H77.9882L78.467 61.7776V68.0944L77.9882 68.6514H80.6822L80.2056 68.0944V64.2859L84.3108 68.6514H86.0158V61.7776L86.4935 61.2207Z" fill="#9F9F9F"/>
<path d="M92.7021 68.6514L92.2244 68.0944V61.7776L92.7021 61.2207H89.4844L89.962 61.7776V68.0944L89.4844 68.6514H92.7021Z" fill="#9F9F9F"/>
<path d="M103.312 61.2207H100.606L101.084 61.7776L99.1743 65.8668L97.3317 61.7776L97.8101 61.2207H94.6254L98.1615 68.6514H99.7418L103.312 61.2207Z" fill="#9F9F9F"/>
<path d="M112.347 68.6514V66.6355L111.778 67.1036H107.901V65.6759H110.357L110.915 66.1452V63.7267L110.357 64.1954H107.901V62.7687H111.778L112.347 63.237V61.2207H105.208L105.685 61.7776V68.0944L105.208 68.6514H112.347Z" fill="#9F9F9F"/>
<path fill-rule="evenodd" clip-rule="evenodd" d="M123.215 68.6514L121.16 65.7211C122.17 65.3193 122.874 64.5512 122.874 63.4711C122.874 62.2335 122.102 61.2207 119.941 61.2207H115.213L115.691 61.7776V68.0944L115.213 68.6514H118.385L117.908 68.0944V65.9888H118.861L120.315 68.0944L119.839 68.6514H123.215ZM120.603 63.6267C120.603 64.1617 120.079 64.5965 119.35 64.5965H117.908V62.7687H119.624C120.123 62.7687 120.603 63.0153 120.603 63.6267Z" fill="#9F9F9F"/>
<path d="M132.821 66.4795C132.821 65.2982 131.854 64.6411 130.455 64.1954C129.546 63.9178 128.262 63.7175 128.262 63.1261C128.262 62.8361 128.613 62.6349 129.228 62.6349C130.048 62.6349 131.387 62.9697 132.433 63.4597V60.9768L131.831 61.544C131.194 61.2874 130.091 61.0204 129.33 61.0204C126.751 61.0204 125.919 62.1343 125.919 63.1489C125.919 64.5297 126.852 65.1318 128.319 65.6332C129.409 66.0001 130.421 66.0338 130.421 66.6452C130.421 67.1705 129.797 67.2373 129.479 67.2373C128.671 67.2373 127.238 66.9579 125.965 66.1454V68.8964L126.568 68.2501C127.16 68.474 128.49 68.8516 129.581 68.8516C131.819 68.8515 132.821 67.8824 132.821 66.4795Z" fill="#9F9F9F"/>
<path fill-rule="evenodd" clip-rule="evenodd" d="M144.161 68.6514L140.432 61.2207H137.874L138.146 61.7776L134.769 68.6514H137.555L137.078 68.0944L137.452 67.3152H141.067L141.431 68.0944L140.953 68.6514H144.161ZM140.511 65.9782H137.997L139.249 63.3156L140.511 65.9782Z" fill="#9F9F9F"/>
<path d="M153.146 68.6514V66.6355L152.576 67.1036H148.927V61.7776L149.404 61.2207H146.231L146.709 61.7776V68.0944L146.231 68.6514H153.146Z" fill="#9F9F9F"/>
<path d="M151.121 62.2509C151.121 62.7712 151.55 63.1905 152.078 63.1905C152.61 63.1905 153.039 62.7712 153.039 62.2509C153.039 61.7312 152.61 61.3106 152.078 61.3106C151.55 61.3105 151.121 61.7311 151.121 62.2509ZM151.02 62.2509C151.02 61.678 151.494 61.2133 152.078 61.2133C152.664 61.2133 153.138 61.678 153.138 62.2509C153.138 62.8241 152.664 63.2896 152.078 63.2896C151.494 63.2896 151.02 62.8241 151.02 62.2509Z" fill="#9F9F9F"/>
<path fill-rule="evenodd" clip-rule="evenodd" d="M152.478 61.8454C152.372 61.7585 152.248 61.7187 152.112 61.7187C151.8 61.7187 151.568 61.9552 151.568 62.2537C151.568 62.5551 151.796 62.7951 152.108 62.7951C152.25 62.7951 152.386 62.7445 152.492 62.6523V62.5149C152.395 62.6279 152.254 62.7005 152.104 62.7005C151.855 62.7005 151.671 62.4878 151.671 62.2536C151.671 62.0189 151.857 61.8115 152.106 61.8115C152.256 61.8115 152.378 61.8707 152.478 61.9787L152.478 61.8454Z" fill="#9F9F9F"/>
<path d="M39.9017 95.8086L39.5722 96.1838V99.0091C39.5722 99.3599 39.5197 99.6567 39.415 99.8999C39.3103 100.142 39.1531 100.34 38.9438 100.49C38.7342 100.641 38.4658 100.753 38.139 100.825C37.8119 100.897 37.416 100.933 36.9509 100.933C36.4884 100.933 36.0944 100.897 35.7685 100.825C35.4429 100.753 35.174 100.641 34.9619 100.49C34.7497 100.34 34.5914 100.142 34.4867 99.8978C34.382 99.6537 34.3295 99.358 34.3295 99.0091V96.1838L34 95.8086H36.2073L35.8778 96.1838V98.9652C35.8778 99.2643 35.9728 99.4876 36.1631 99.6348C36.3534 99.782 36.6161 99.8554 36.9508 99.8554C37.2855 99.8554 37.5487 99.7829 37.7403 99.6369C37.9318 99.4907 38.0277 99.2672 38.0277 98.9654V96.184L37.6983 95.8087L39.9017 95.8086Z" fill="#9F9F9F"/>
<path d="M48.3637 95.8086L48.034 96.1838V100.835H46.8537L44.0215 97.8801V100.459L44.3512 100.834H42.4924L42.8221 100.459V96.1838L42.4924 95.8086H44.1635L46.8308 98.7186V96.1838L46.5011 95.8086H48.3637Z" fill="#9F9F9F"/>
<path d="M53.4454 100.835H51.2265L51.556 100.459V96.184L51.2265 95.8087H53.4454L53.116 96.184V100.459L53.4454 100.835Z" fill="#9F9F9F"/>
<path d="M61.6008 95.8086L59.1367 100.835H58.0444L55.6032 95.8086H57.803L57.4734 96.1838L58.7459 98.9504L60.0642 96.1838L59.7347 95.8086H61.6008Z" fill="#9F9F9F"/>
<path d="M68.6486 100.835H63.72L64.0496 100.459V96.184L63.72 95.8087H68.6486V97.1738L68.2538 96.8572H65.5788V97.8214H67.2728L67.6598 97.5046V99.1386L67.2728 98.8218H65.5788V99.7861H68.2538L68.6486 99.4694V100.835Z" fill="#9F9F9F"/>
<path d="M76.957 100.835H74.6269L74.9566 100.459L73.9524 99.0354H73.2932V100.459L73.6229 100.835H71.4346L71.7639 100.459V96.184L71.4346 95.8087H74.6997C75.405 95.8087 75.9183 95.9487 76.2403 96.228C76.5621 96.5079 76.7231 96.8755 76.7231 97.3316C76.7231 97.6824 76.617 97.988 76.405 98.2479C76.1931 98.5079 75.9041 98.7092 75.539 98.8516L76.957 100.835ZM75.1522 97.4347C75.1522 97.3024 75.1209 97.1931 75.0582 97.1073C74.9955 97.0216 74.9131 96.9583 74.8112 96.9178C74.7091 96.8774 74.5978 96.8572 74.4776 96.8572H73.2934V98.0936H74.2899C74.5376 98.0936 74.7433 98.0297 74.907 97.902C75.0702 97.7743 75.1522 97.6184 75.1522 97.4347Z" fill="#9F9F9F"/>
<path d="M84.3918 99.3662C84.3918 99.6092 84.3479 99.8275 84.2596 100.021C84.1714 100.215 84.0348 100.383 83.8498 100.526C83.6643 100.667 83.4319 100.777 83.1522 100.854C82.8723 100.932 82.541 100.971 82.1576 100.971C81.9251 100.971 81.6753 100.948 81.4083 100.904C81.1413 100.86 80.8835 100.804 80.6344 100.735C80.3852 100.667 80.1993 100.609 80.0767 100.562L79.659 101V99.1386C80.0575 99.3887 80.481 99.5742 80.9294 99.6958C81.3778 99.8173 81.7628 99.8781 82.0849 99.8781C82.2507 99.8781 82.4011 99.8504 82.535 99.7954C82.6693 99.7403 82.7364 99.634 82.7364 99.4767C82.7364 99.3517 82.6775 99.2562 82.5599 99.1898C82.4426 99.1238 82.2258 99.0499 81.9104 98.9675C81.5947 98.8853 81.386 98.8271 81.2837 98.7925C80.7266 98.6066 80.3115 98.3883 80.0382 98.1397C79.7648 97.8906 79.6281 97.5479 79.6281 97.1111C79.6281 96.8634 79.7041 96.6311 79.8561 96.414C80.0081 96.197 80.2624 96.0193 80.6189 95.8804C80.9753 95.7421 81.4305 95.6725 81.985 95.6725C82.1127 95.6725 82.2494 95.6818 82.3951 95.7002C82.5407 95.7185 82.7016 95.7461 82.8779 95.7829C83.054 95.8196 83.21 95.8584 83.3453 95.899C83.4809 95.9399 83.602 95.9816 83.7095 96.0261L84.1273 95.6437V97.3249C83.8794 97.212 83.6193 97.1135 83.3474 97.0287C83.0752 96.9438 82.814 96.8791 82.5635 96.8336C82.3131 96.7881 82.0961 96.7657 81.9119 96.7657C81.7049 96.7657 81.5421 96.7963 81.4235 96.8576C81.3047 96.9188 81.2454 96.9986 81.2454 97.0966C81.2454 97.19 81.2901 97.2707 81.3795 97.3396C81.4688 97.4081 81.5831 97.4679 81.7225 97.5179C81.8618 97.5684 82.0429 97.6236 82.2667 97.6834C82.4901 97.7436 82.6543 97.7897 82.759 97.8219C83.2827 97.9857 83.6859 98.19 83.9682 98.4341C84.2504 98.6782 84.3918 98.9888 84.3918 99.3662Z" fill="#9F9F9F"/>
<path d="M93.0339 100.835H90.8188L91.1484 100.459L90.8992 99.9296H88.4003L88.1436 100.459L88.4733 100.835H86.5494L88.8796 96.1838L88.6916 95.8086H90.4586L93.0339 100.835ZM90.5124 99.024L89.6423 97.2247L88.7802 99.024H90.5124Z" fill="#9F9F9F"/>
<path d="M100.043 100.835H95.2721L95.6016 100.459V96.184L95.2721 95.8087H97.4605L97.1308 96.184V99.7861H99.6486L100.043 99.4694L100.043 100.835Z" fill="#9F9F9F"/>
<path d="M113.166 100.835H111.023L111.353 100.459V98.0456L109.965 100.835H109.233L107.666 98.0016V100.459L107.996 100.835H106.183L106.513 100.459V96.184L106.183 95.8087H108.026L109.728 98.8848L111.284 95.8087H113.166L112.836 96.184V100.459L113.166 100.835Z" fill="#9F9F9F"/>
<path d="M121.658 95.8086L121.328 96.1838V99.0091C121.328 99.3599 121.276 99.6567 121.171 99.8999C121.067 100.142 120.909 100.34 120.7 100.49C120.49 100.641 120.222 100.753 119.895 100.825C119.568 100.897 119.172 100.933 118.707 100.933C118.244 100.933 117.85 100.897 117.525 100.825C117.199 100.753 116.93 100.641 116.718 100.49C116.506 100.34 116.348 100.142 116.243 99.8978C116.138 99.6537 116.086 99.358 116.086 99.0091V96.1838L115.756 95.8086H117.964L117.634 96.1838V98.9652C117.634 99.2643 117.729 99.4876 117.919 99.6348C118.11 99.782 118.372 99.8554 118.707 99.8554C119.042 99.8554 119.305 99.7829 119.497 99.6369C119.688 99.4907 119.784 99.2672 119.784 98.9654V96.184L119.454 95.8087L121.658 95.8086Z" fill="#9F9F9F"/>
<path d="M128.932 99.3662C128.932 99.6092 128.888 99.8275 128.8 100.021C128.712 100.215 128.575 100.383 128.39 100.526C128.204 100.667 127.972 100.777 127.692 100.854C127.412 100.932 127.081 100.971 126.698 100.971C126.465 100.971 126.215 100.948 125.948 100.904C125.681 100.86 125.423 100.804 125.174 100.735C124.925 100.667 124.739 100.609 124.617 100.562L124.199 101V99.1386C124.597 99.3887 125.021 99.5742 125.469 99.6958C125.918 99.8173 126.303 99.8781 126.625 99.8781C126.791 99.8781 126.941 99.8504 127.075 99.7954C127.209 99.7403 127.276 99.634 127.276 99.4767C127.276 99.3517 127.217 99.2562 127.1 99.1898C126.983 99.1238 126.766 99.0499 126.45 98.9675C126.135 98.8853 125.926 98.8271 125.824 98.7925C125.267 98.6066 124.852 98.3883 124.578 98.1397C124.305 97.8906 124.168 97.5479 124.168 97.1111C124.168 96.8634 124.245 96.6311 124.397 96.414C124.549 96.197 124.803 96.0193 125.159 95.8804C125.516 95.7421 125.971 95.6725 126.525 95.6725C126.653 95.6725 126.79 95.6818 126.935 95.7002C127.081 95.7185 127.242 95.7461 127.418 95.7829C127.595 95.8196 127.75 95.8584 127.886 95.899C128.021 95.9399 128.143 95.9816 128.25 96.0261L128.668 95.6437V97.3249C128.42 97.212 128.16 97.1135 127.888 97.0287C127.616 96.9438 127.354 96.8791 127.104 96.8336C126.854 96.7881 126.637 96.7657 126.453 96.7657C126.246 96.7657 126.083 96.7963 125.964 96.8576C125.845 96.9188 125.786 96.9986 125.786 97.0966C125.786 97.19 125.83 97.2707 125.92 97.3396C126.009 97.4081 126.124 97.4679 126.263 97.5179C126.402 97.5684 126.583 97.6236 126.807 97.6834C127.031 97.7436 127.195 97.7897 127.3 97.8219C127.823 97.9857 128.226 98.19 128.509 98.4341C128.791 98.6776 128.932 98.9888 128.932 99.3662Z" fill="#9F9F9F"/>
<path d="M133.937 100.835H131.718L132.047 100.459V96.184L131.718 95.8087H133.937L133.607 96.184V100.459L133.937 100.835Z" fill="#9F9F9F"/>
<path d="M141.613 100.474C141.516 100.528 141.392 100.582 141.242 100.636C141.091 100.689 140.925 100.738 140.744 100.781C140.562 100.824 140.366 100.86 140.155 100.89C139.944 100.919 139.744 100.933 139.555 100.933C139.147 100.933 138.761 100.883 138.4 100.783C138.038 100.682 137.716 100.526 137.434 100.312C137.152 100.099 136.93 99.8238 136.769 99.4877C136.608 99.1517 136.528 98.7615 136.528 98.3178C136.528 97.95 136.595 97.6064 136.731 97.2878C136.866 96.969 137.067 96.6912 137.333 96.4542C137.598 96.2177 137.923 96.0344 138.308 95.9041C138.693 95.7744 139.13 95.709 139.621 95.709C139.815 95.709 140.013 95.7223 140.214 95.7478C140.416 95.7734 140.602 95.8062 140.772 95.8454C140.942 95.8847 141.1 95.9302 141.246 95.9812L141.606 95.6503V97.3245C141.412 97.209 141.216 97.113 141.018 97.0354C140.82 96.9583 140.61 96.899 140.391 96.8572C140.171 96.8153 139.942 96.7947 139.705 96.7947C139.186 96.7947 138.8 96.9373 138.547 97.2234C138.295 97.5089 138.168 97.874 138.168 98.3178C138.168 98.6196 138.233 98.8862 138.364 99.118C138.494 99.3499 138.68 99.5297 138.923 99.6568C139.166 99.7845 139.443 99.8483 139.755 99.8483C140.043 99.8483 140.307 99.8189 140.546 99.7601C140.785 99.7013 140.983 99.6334 141.14 99.5557C141.297 99.4785 141.455 99.3922 141.613 99.2962L141.613 100.474Z" fill="#9F9F9F"/>
<path d="M151.834 98.7263L151.497 98.3397H153.363V100.352C153.253 100.419 153.109 100.487 152.93 100.557C152.751 100.627 152.551 100.69 152.329 100.748C152.106 100.805 151.881 100.851 151.654 100.884C151.427 100.917 151.204 100.933 150.987 100.933C150.438 100.933 149.927 100.842 149.454 100.658C148.982 100.474 148.603 100.185 148.32 99.7932C148.036 99.4008 147.894 98.909 147.894 98.3176C147.894 97.7268 148.044 97.2349 148.343 96.842C148.642 96.4498 149.028 96.1628 149.502 95.981C149.976 95.7998 150.471 95.7088 150.987 95.7088C151.355 95.7088 151.659 95.7365 151.899 95.7916C152.14 95.8473 152.41 95.9249 152.712 96.0255L153.13 95.6502V97.3759C152.795 97.1941 152.461 97.052 152.129 96.9491C151.797 96.8458 151.442 96.7947 151.064 96.7947C150.824 96.7947 150.609 96.8306 150.42 96.9031C150.231 96.9757 150.071 97.0793 149.939 97.2142C149.808 97.3491 149.707 97.5089 149.638 97.6943C149.57 97.8798 149.535 98.0876 149.535 98.3179C149.535 98.7816 149.671 99.1523 149.943 99.4307C150.215 99.7096 150.589 99.8485 151.064 99.8485C151.258 99.8485 151.515 99.8204 151.834 99.7637V98.7263Z" fill="#9F9F9F"/>
<path d="M161.438 100.835H159.108L159.438 100.459L158.434 99.0354H157.775V100.459L158.104 100.835H155.916L156.245 100.459V96.184L155.916 95.8087H159.181C159.886 95.8087 160.4 95.9487 160.722 96.228C161.043 96.5079 161.205 96.8755 161.205 97.3316C161.205 97.6824 161.099 97.988 160.886 98.2479C160.674 98.5079 160.386 98.7092 160.02 98.8516L161.438 100.835ZM159.633 97.4347C159.633 97.3024 159.602 97.1931 159.539 97.1073C159.477 97.0216 159.394 96.9583 159.292 96.9178C159.19 96.8774 159.079 96.8572 158.959 96.8572H157.775V98.0936H158.771C159.019 98.0936 159.224 98.0297 159.388 97.902C159.551 97.7743 159.633 97.6184 159.633 97.4347Z" fill="#9F9F9F"/>
<path d="M169.927 98.3176C169.927 98.9212 169.784 99.4214 169.498 99.8187C169.211 100.216 168.84 100.506 168.384 100.689C167.928 100.872 167.437 100.963 166.911 100.963C166.387 100.963 165.896 100.871 165.437 100.687C164.979 100.503 164.605 100.212 164.316 99.8136C164.028 99.4147 163.883 98.9161 163.883 98.3178C163.883 97.8592 163.969 97.4608 164.138 97.1223C164.308 96.7836 164.538 96.5082 164.828 96.2958C165.118 96.0839 165.44 95.928 165.796 95.8285C166.151 95.7294 166.522 95.68 166.911 95.68C167.304 95.68 167.679 95.73 168.034 95.8306C168.389 95.9311 168.709 96.0864 168.994 96.2958C169.279 96.5058 169.505 96.7805 169.674 97.1201C169.842 97.4597 169.927 97.8591 169.927 98.3176ZM168.287 98.3176C168.287 97.8294 168.176 97.4489 167.955 97.175C167.734 96.9017 167.386 96.765 166.911 96.765C166.597 96.765 166.336 96.8283 166.129 96.9545C165.922 97.0805 165.771 97.2599 165.675 97.4918C165.579 97.7236 165.531 97.9989 165.531 98.3176C165.531 98.5484 165.557 98.7604 165.61 98.9539C165.662 99.148 165.745 99.3135 165.859 99.4508C165.973 99.5882 166.117 99.6934 166.292 99.7676C166.467 99.8411 166.673 99.8778 166.911 99.8778C167.151 99.8778 167.359 99.8411 167.534 99.7676C167.709 99.6936 167.852 99.5882 167.963 99.4508C168.074 99.3135 168.156 99.1511 168.208 98.9631C168.26 98.7759 168.287 98.5608 168.287 98.3176Z" fill="#9F9F9F"/>
<path d="M178.12 95.8086L177.791 96.1838V99.0091C177.791 99.3599 177.738 99.6567 177.634 99.8999C177.529 100.142 177.372 100.34 177.162 100.49C176.953 100.641 176.684 100.753 176.358 100.825C176.03 100.897 175.634 100.933 175.17 100.933C174.707 100.933 174.313 100.897 173.987 100.825C173.662 100.753 173.393 100.641 173.18 100.49C172.968 100.34 172.81 100.142 172.705 99.8978C172.6 99.6537 172.548 99.358 172.548 99.0091V96.1838L172.218 95.8086H174.426L174.096 96.1838V98.9652C174.096 99.2643 174.192 99.4876 174.382 99.6348C174.572 99.782 174.835 99.8554 175.17 99.8554C175.504 99.8554 175.768 99.7829 175.959 99.6369C176.151 99.4907 176.246 99.2672 176.246 98.9654V96.184L175.917 95.8087L178.12 95.8086Z" fill="#9F9F9F"/>
<path d="M186 97.475C186 98.1961 185.767 98.693 185.3 98.9652C184.834 99.2374 184.228 99.3738 183.482 99.3738H182.57V100.459L182.899 100.834H180.711L181.041 100.459V96.1838L180.711 95.8086H183.528C183.939 95.8086 184.329 95.8551 184.697 95.9485C185.065 96.0415 185.374 96.212 185.624 96.4598C185.875 96.7074 186 97.0459 186 97.475ZM184.406 97.5633C184.406 97.3009 184.323 97.1174 184.158 97.0133C183.994 96.9092 183.757 96.857 183.447 96.857H182.57V98.3764H183.31C183.685 98.3764 183.962 98.3176 184.139 98.2002C184.317 98.0823 184.406 97.8702 184.406 97.5633Z" fill="#9F9F9F"/>
</svg>
